<?xml version="1.0" encoding="UTF-8"?>
<svg xmlns="http://www.w3.org/2000/svg" width="64" height="64" viewBox="0 0 64 64">
  <defs>
    <linearGradient id="cup" x1="0" y1="0" x2="0" y2="1">
      <stop offset="0" stop-color="#3b241a"/>
      <stop offset="1" stop-color="#20110c"/>
    </linearGradient>
    <linearGradient id="can" x1="0" y1="0" x2="0" y2="1">
      <stop offset="0" stop-color="#f8fbff"/>
      <stop offset="1" stop-color="#dfe7f2"/>
    </linearGradient>
    <filter id="shadow" x="-30%" y="-30%" width="160%" height="160%">
      <feDropShadow dx="0" dy="2" stdDeviation="2" flood-color="#000" flood-opacity="0.22"/>
    </filter>
  </defs>

  <g transform="translate(36 10) rotate(16)" filter="url(#shadow)">
    <rect x="-10" y="0" width="18" height="44" rx="4" fill="url(#can)" stroke="#1b1f2a" stroke-width="2"/>
    <rect x="-10" y="2" width="18" height="4" rx="2" fill="#f2f6ff" stroke="#1b1f2a" stroke-width="2"/>
    <rect x="-10" y="38" width="18" height="4" rx="2" fill="#cfd9e6" stroke="#1b1f2a" stroke-width="2"/>
    <rect x="-2" y="4" width="6" height="36" rx="3" fill="#38f06e" opacity="0.95"/>
  </g>

  <path d="M25 14c6-6 16-1 10 6-4 5-12 2-10-3 2-4 8-3 7 0"
        fill="none" stroke="#e0669a" stroke-width="4" stroke-linecap="round" stroke-linejoin="round"/>

  <g filter="url(#shadow)">
    <rect x="10" y="22" width="34" height="28" rx="8" fill="url(#cup)"/>
    <path d="M44 30c6 0 10 4 10 9s-4 9-10 9"
          fill="none" stroke="#20110c" stroke-width="6" stroke-linecap="round"/>
    <path d="M44 33c4 0 7 3 7 6s-3 6-7 6"
          fill="none" stroke="#3b241a" stroke-width="3" stroke-linecap="round"/>
  </g>
</svg>
